<svg width="48" height="48" viewBox="0 0 48 48" fill="none" xmlns="http://www.w3.org/2000/svg">
<path d="M25.1546 22.2966C24.05 22.2966 23.1546 23.1921 23.1546 24.2966C23.1546 25.4012 24.05 26.2966 25.1546 26.2966V22.2966ZM39.7964 24.2966L41.1402 25.778C41.7525 25.2225 41.9599 24.3477 41.6622 23.5764C41.3646 22.8052 40.6231 22.2966 39.7964 22.2966V24.2966ZM25.1546 37.579L23.8108 36.0977C23.1985 36.6531 22.991 37.528 23.2887 38.2992C23.5864 39.0704 24.3279 39.579 25.1546 39.579V37.579ZM39.7964 39.579C40.901 39.579 41.7964 38.6836 41.7964 37.579C41.7964 36.4744 40.901 35.579 39.7964 35.579V39.579ZM10.1109 14.237C9.03581 14.4906 8.3699 15.5677 8.62351 16.6428C8.87712 17.7178 9.95423 18.3837 11.0293 18.1301L10.1109 14.237ZM31.6365 8.25461L33.2909 9.37848L33.2909 9.37847L31.6365 8.25461ZM28.285 2.96866L27.3544 1.1984V1.1984L28.285 2.96866ZM9.9174 44.7528L9.11563 42.9205H9.11563L9.9174 44.7528ZM2.43077 43.0538L0.595593 43.8489L0.617158 43.8986L0.64139 43.9472L2.43077 43.0538ZM6.5123 35.5573L5.92591 33.6452H5.92591L6.5123 35.5573ZM36.4243 45.2563L36.8727 47.2054L36.4243 45.2563ZM48 38.6488C48 37.5443 47.1046 36.6488 46 36.6488C44.8954 36.6488 44 37.5443 44 38.6488H48ZM25.1546 26.2966H39.7964V22.2966H25.1546V26.2966ZM38.4526 22.8153L23.8108 36.0977L26.4983 39.0603L41.1402 25.778L38.4526 22.8153ZM25.1546 39.579H39.7964V35.579H25.1546V39.579ZM10.5701 16.1835C11.0293 18.1301 11.0294 18.1301 11.0295 18.13C11.0296 18.13 11.0298 18.13 11.03 18.1299C11.0303 18.1299 11.0308 18.1298 11.0313 18.1296C11.0324 18.1294 11.034 18.129 11.036 18.1285C11.04 18.1276 11.0457 18.1262 11.0532 18.1245C11.0681 18.1209 11.0898 18.1157 11.1181 18.109C11.1747 18.0954 11.2577 18.0755 11.3649 18.0495C11.5794 17.9975 11.891 17.9211 12.2832 17.8229C13.0675 17.6266 14.1753 17.3426 15.4739 16.991C18.0639 16.2897 21.4427 15.3114 24.5336 14.2161L23.1975 10.4458C20.244 11.4925 16.9751 12.4405 14.4285 13.13C13.1587 13.4738 12.076 13.7513 11.3118 13.9427C10.9298 14.0383 10.6277 14.1123 10.422 14.1622C10.3192 14.1872 10.2404 14.2061 10.1879 14.2186C10.1616 14.2249 10.1419 14.2296 10.129 14.2327C10.1225 14.2342 10.1177 14.2353 10.1147 14.2361C10.1132 14.2364 10.1121 14.2367 10.1115 14.2368C10.1112 14.2369 10.1109 14.237 10.1108 14.237C10.1108 14.237 10.1108 14.237 10.1108 14.237C10.1108 14.237 10.1109 14.237 10.5701 16.1835ZM24.5336 14.2161C26.3969 13.5557 28.2025 12.8365 29.6826 12.0915C30.4227 11.7189 31.1171 11.3222 31.7106 10.9025C32.2834 10.4974 32.8723 9.9947 33.2909 9.37848L29.9821 7.13075C29.9497 7.17851 29.7986 7.35543 29.4008 7.63675C29.0238 7.90343 28.5171 8.19997 27.8841 8.51858C26.6181 9.15589 24.9892 9.81086 23.1975 10.4458L24.5336 14.2161ZM33.2909 9.37847C34.8175 7.13117 35.058 4.48034 33.7905 2.5369C33.1554 1.56298 32.172 0.849669 30.9686 0.598038C29.7737 0.34818 28.5231 0.583974 27.3544 1.1984L29.2157 4.73892C29.7228 4.47236 30.0282 4.48791 30.1499 4.51336C30.2632 4.53704 30.357 4.5946 30.4401 4.72192C30.609 4.98096 30.8494 5.8541 29.9821 7.13075L33.2909 9.37847ZM27.3544 1.1984C26.5833 1.60379 26.0556 2.36778 25.7349 2.87978C25.3503 3.4936 24.9606 4.2621 24.5709 5.11659C23.7882 6.83277 22.9127 9.10302 21.9863 11.6465L25.7447 13.0154C26.6654 10.4878 27.4965 8.34139 28.2103 6.77644C28.5688 5.99036 28.8748 5.40218 29.1246 5.00333C29.4383 4.50267 29.4837 4.59802 29.2157 4.73892L27.3544 1.1984ZM21.9863 11.6465C19.1706 19.3773 15.8326 29.7485 12.779 36.6716L16.4388 38.2859C19.5612 31.2067 23.0225 20.4896 25.7447 13.0154L21.9863 11.6465ZM12.779 36.6716C11.9379 38.5784 11.1501 40.1477 10.436 41.2873C10.0792 41.8567 9.7667 42.2768 9.50418 42.5654C9.22593 42.8712 9.09215 42.9308 9.11563 42.9205L10.7192 46.585C11.4229 46.2771 12.0015 45.7642 12.4628 45.2573C12.9397 44.7332 13.3937 44.1004 13.8255 43.4113C14.6887 42.0338 15.5664 40.2638 16.4388 38.2859L12.779 36.6716ZM9.11563 42.9205C6.94078 43.8722 5.76004 43.4465 5.16885 43.0876C4.81992 42.8758 4.5642 42.6153 4.39657 42.4056C4.31427 42.3027 4.25859 42.2187 4.22847 42.1701C4.21357 42.1461 4.2055 42.1317 4.20407 42.1291C4.20337 42.1279 4.20437 42.1297 4.20705 42.1347C4.20839 42.1373 4.21015 42.1407 4.21233 42.1449C4.21343 42.1471 4.21462 42.1494 4.21593 42.152C4.21658 42.1533 4.21726 42.1546 4.21796 42.156C4.21831 42.1567 4.21886 42.1578 4.21904 42.1582C4.21959 42.1593 4.22015 42.1604 2.43077 43.0538C0.64139 43.9472 0.641967 43.9483 0.642553 43.9495C0.642759 43.9499 0.643355 43.9511 0.643769 43.9519C0.644598 43.9536 0.645463 43.9553 0.646364 43.9571C0.648166 43.9606 0.650113 43.9645 0.652206 43.9685C0.656392 43.9767 0.661163 43.9859 0.666526 43.9961C0.67725 44.0165 0.690363 44.0409 0.705923 44.069C0.73701 44.125 0.778056 44.196 0.829541 44.279C0.932178 44.4444 1.07832 44.6608 1.27226 44.9034C1.65709 45.3848 2.25151 45.996 3.09322 46.507C4.88331 47.5936 7.44588 48.0174 10.7192 46.585L9.11563 42.9205ZM2.43077 43.0538C4.26595 42.2587 4.26638 42.2597 4.26679 42.2607C4.26692 42.261 4.26733 42.2619 4.26758 42.2625C4.26809 42.2637 4.26857 42.2648 4.26901 42.2658C4.26989 42.2679 4.27063 42.2696 4.27124 42.2711C4.27247 42.274 4.27317 42.2757 4.27338 42.2762C4.2738 42.2772 4.27231 42.2736 4.2692 42.2656C4.26294 42.2496 4.2504 42.2164 4.23397 42.1682C4.20083 42.0709 4.15366 41.9175 4.11028 41.724C4.02105 41.326 3.96192 40.8206 4.02868 40.3078C4.09287 39.8146 4.27037 39.3236 4.66011 38.8714C5.05298 38.4156 5.76636 37.878 7.09869 37.4694L5.92591 33.6452C4.02341 34.2287 2.60918 35.1242 1.63023 36.2599C0.648151 37.3994 0.209625 38.6584 0.0621426 39.7914C-0.0827682 40.9046 0.0507747 41.9014 0.207149 42.599C0.286566 42.9532 0.375426 43.246 0.447618 43.458C0.483853 43.5643 0.516295 43.6515 0.541868 43.7172C0.554668 43.75 0.56579 43.7776 0.574857 43.7996C0.579393 43.8107 0.583419 43.8203 0.586889 43.8285C0.588624 43.8326 0.59022 43.8363 0.591673 43.8397C0.592399 43.8414 0.593089 43.843 0.593743 43.8446C0.594069 43.8453 0.594532 43.8464 0.594696 43.8468C0.595149 43.8478 0.595593 43.8489 2.43077 43.0538ZM7.09869 37.4694C7.6234 37.3085 8.425 37.3062 9.62143 37.625C10.8 37.939 12.1704 38.5118 13.7295 39.275L15.4883 35.6825C13.8467 34.8788 12.2035 34.1735 10.6513 33.7599C9.11703 33.351 7.4707 33.1715 5.92591 33.6452L7.09869 37.4694ZM13.7295 39.275C15.3843 40.0852 17.1418 41.054 19.0221 42.0698C20.8799 43.0735 22.8374 44.1115 24.8016 45.0006C28.641 46.7386 32.9262 48.1131 36.8727 47.2054L35.976 43.3072C33.4099 43.8974 30.19 43.049 26.4511 41.3566C24.6262 40.5305 22.7763 39.5516 20.9233 38.5505C19.0928 37.5617 17.2361 36.5381 15.4883 35.6825L13.7295 39.275ZM36.8727 47.2054C41.9317 46.0418 44.7561 44.2286 46.3123 42.4389C47.0892 41.5455 47.5171 40.6937 47.7471 40.0059C47.8612 39.6648 47.9245 39.3705 47.9592 39.1389C47.9765 39.0232 47.9867 38.9233 47.9926 38.841C47.9955 38.7999 47.9974 38.7632 47.9985 38.7311C47.9991 38.715 47.9994 38.7001 47.9997 38.6864C47.9998 38.6795 47.9999 38.673 47.9999 38.6667C48 38.6636 48 38.6605 48 38.6575C48 38.6561 48 38.6539 48 38.6531C48 38.651 48 38.6488 46 38.6488C44 38.6488 44 38.6467 44 38.6446C44 38.644 44 38.6419 44 38.6405C44 38.6378 44 38.6351 44.0001 38.6326C44.0001 38.6274 44.0002 38.6224 44.0003 38.6177C44.0004 38.6082 44.0007 38.5997 44.0009 38.592C44.0014 38.5767 44.0021 38.565 44.0027 38.5567C44.0039 38.54 44.0048 38.5368 44.0034 38.5459C44.0007 38.5638 43.9892 38.6308 43.9536 38.7372C43.8845 38.944 43.7139 39.3312 43.2938 39.8143C42.4561 40.7777 40.4926 42.2683 35.976 43.3072L36.8727 47.2054Z" fill="#E6E6E6"/>
</svg>
